<?xml version="1.0" encoding="utf-8"?>
<!-- Generator: Adobe Illustrator 26.0.3, SVG Export Plug-In . SVG Version: 6.00 Build 0)  -->
<svg version="1.0" id="katman_1" xmlns="http://www.w3.org/2000/svg" xmlns:xlink="http://www.w3.org/1999/xlink" x="0px" y="0px"
	 viewBox="0 0 800 600" style="enable-background:new 0 0 800 600;" xml:space="preserve">
<style type="text/css">
	.st0{fill:#FF6C37;}
	.st1{fill:#FFFFFF;}
</style>
<path class="st0" d="M160.8,512.8V448c0-0.8,0.3-1.5,0.9-2c0.7-0.6,1.5-0.8,2.4-0.8h18.3c5.4-0.3,10.7,1.5,14.9,5
	c3.7,3.3,5.6,8.6,5.6,15.8v0.9c0,7.2-1.9,12.5-5.7,15.9c-4.2,3.5-9.6,5.3-15.1,5.1h-13v25c0,0.9-0.4,1.7-1.2,2.1c-1.8,1-3.9,1-5.7,0
	C161.4,514.5,160.8,513.7,160.8,512.8z M168.9,481.1H182c3.5,0.2,6.9-1,9.4-3.4c2.4-2.8,3.6-6.5,3.4-10.3v-1.2
	c0.3-3.7-0.9-7.4-3.3-10.3c-2.5-2.4-5.9-3.6-9.4-3.4h-13L168.9,481.1z"/>
<path class="st0" d="M231.1,495.3v-29c0-7.2,1.9-12.6,5.7-16c8.9-6.7,21.2-6.7,30.2,0c3.8,3.4,5.7,8.7,5.7,16v29
	c0,7.3-1.9,12.6-5.7,16c-9,6.8-21.3,6.8-30.3,0C233,507.8,231.1,502.6,231.1,495.3z M239.3,495.3c0,9.1,4.2,13.7,12.6,13.7
	c3.5,0.2,6.9-1,9.4-3.4c2.4-2.9,3.6-6.6,3.3-10.3v-29c0.3-3.7-0.9-7.4-3.3-10.3c-2.5-2.4-5.9-3.6-9.4-3.4c-8.4,0-12.6,4.5-12.6,13.7
	V495.3z"/>
<path class="st0" d="M301.4,505.8c0-1.1,0.4-2.2,1.1-3c0.5-0.8,1.4-1.4,2.3-1.5c0.9,0.1,1.6,0.6,2.2,1.2c0.9,0.8,1.8,1.7,2.8,2.7
	c1.3,1.2,2.8,2.1,4.5,2.7c2.3,0.8,4.7,1.3,7.1,1.2c3.5,0.2,7-0.9,9.8-3c2.5-2.3,3.8-5.6,3.6-8.9c0.1-3.2-1-6.3-3.3-8.6
	c-2.2-2.2-4.9-4-7.9-5.1c-3.1-1.1-6.2-2.4-9.4-3.7c-3.1-1.3-5.9-3.4-8-6c-2.3-3-3.4-6.8-3.3-10.6c-0.1-3.1,0.6-6.1,1.9-8.8
	c1.1-2.3,2.9-4.3,5.2-5.6c2.1-1.2,4.3-2.2,6.7-2.8c2.4-0.6,4.9-0.9,7.4-0.9c3.9,0,7.7,0.6,11.4,1.7c3.6,1.2,5.5,2.8,5.5,4.7
	c-0.1,1-0.4,2-1,2.9c-0.5,0.9-1.5,1.5-2.5,1.5c-1.5-0.5-2.9-1-4.3-1.7c-2.8-1.3-5.9-1.9-9-1.8c-3.3-0.2-6.6,0.7-9.4,2.4
	c-2.5,1.7-3.9,4.6-3.6,7.6c-0.1,2.8,1,5.5,3.2,7.2c2.4,1.9,5.1,3.4,8,4.4c3.1,1.1,6.2,2.4,9.4,3.8c3.2,1.5,5.9,3.9,7.9,6.8
	c2.3,3.5,3.4,7.7,3.3,11.9c0,6.6-1.9,11.6-5.8,15c-4.3,3.5-9.8,5.3-15.3,5.1c-5.1,0.2-10.1-1.1-14.5-3.6
	C303.4,510.5,301.4,508.2,301.4,505.8z"/>
<path class="st0" d="M367.2,448.8c0-0.9,0.2-1.8,0.8-2.5c0.5-0.7,1.3-1.1,2.1-1.1h39.3c0.8-0.1,1.7,0.4,2.1,1.1
	c0.5,0.7,0.8,1.6,0.8,2.5c0,0.9-0.2,1.9-0.8,2.6c-0.4,0.7-1.3,1.2-2.1,1.1h-15.4v60.3c0,0.9-0.4,1.7-1.2,2.1c-1.8,1-3.9,1-5.7,0
	c-0.8-0.4-1.2-1.2-1.2-2.1v-60.3h-15.6c-0.8,0-1.7-0.4-2.1-1.1C367.5,450.7,367.2,449.7,367.2,448.8z"/>
<path class="st0" d="M439.7,512.8v-63.5c-0.3-1.9,1-3.7,2.9-4c0.4-0.1,0.8-0.1,1.3,0c2.6,0,4.7,1.7,6.5,5.1l15.1,29l15.3-29
	c1.9-3.4,4-5.1,6.4-5.1c1.9-0.3,3.7,1,4,2.9l0,0c0.1,0.3,0.1,0.7,0,1v63.5c0,0.9-0.4,1.7-1.2,2.1c-1.8,1-3.9,1-5.7,0
	c-0.8-0.4-1.2-1.3-1.2-2.1v-50.5l-14.6,27.4c-0.5,1.4-1.7,2.3-3.2,2.4c-1.4-0.1-2.6-1-3-2.4l-14.6-27.9v51.1c0,0.9-0.4,1.7-1.2,2.1
	c-0.8,0.6-1.8,0.9-2.7,0.9c-1,0-2-0.2-2.8-0.8C440.1,514.6,439.6,513.8,439.7,512.8z"/>
<path class="st0" d="M518.9,512.4c0-0.3,0.1-0.5,0.2-0.8l19.7-63.5c0.6-1.9,2.2-2.8,4.9-2.8c2.7,0,4.4,0.9,4.9,2.8l19.8,63.9
	c0,0.1,0,0.2,0,0.3c0,0.1,0,0.2,0,0.3c0,1-0.6,1.9-1.5,2.4c-1.1,0.7-2.3,1-3.5,0.9c-1.3,0.2-2.5-0.6-2.9-1.8l-4.2-14.1H531
	l-4.2,14.1c-0.4,1.3-1.7,2.1-3,1.9c-1.2,0-2.3-0.3-3.3-1C519.5,514.4,518.9,513.4,518.9,512.4z M532.9,493h21.6L543.7,457L532.9,493
	z"/>
<path class="st0" d="M596.5,512.8V448c0-1.9,1.3-2.8,4-2.8c1.3,0,2.5,0.4,3.4,1.2c1.1,1.1,2.1,2.4,2.7,3.9l24,47.1V448
	c0-0.9,0.5-1.7,1.2-2.1c1.8-1,3.9-1,5.7,0c0.7,0.4,1.2,1.2,1.2,2.1v64.9c0,0.9-0.4,1.7-1.2,2.1c-0.9,0.5-1.8,0.8-2.9,0.8
	c-2.3-0.1-4.3-1.5-5.1-3.7l-25.1-48.5v49.3c0,0.9-0.4,1.7-1.2,2.1c-1.8,1-3.9,1-5.7,0C596.9,514.5,596.4,513.7,596.5,512.8z"/>
<path class="st0" d="M549.6,257.2c10.6-82.7-47.8-158.4-130.5-169s-158.4,47.8-169,130.5c-10.6,82.7,47.8,158.4,130.5,169l0,0l0,0
	C463.3,398.3,539,339.9,549.6,257.2z"/>
<path class="st1" d="M454.3,184l-63.7,63.7l-18-18C435.3,167,441.5,172.5,454.3,184z"/>
<path class="st0" d="M390.6,249.2L390.6,249.2c-0.4,0-0.8-0.2-1.1-0.5l-18.1-18.1c-0.6-0.6-0.6-1.5,0-2.1
	c63.7-63.7,70.4-57.7,83.8-45.7c0.6,0.6,0.7,1.5,0.1,2.2c0,0,0,0,0,0l-63.6,63.7C391.4,249,391,249.2,390.6,249.2z M374.7,229.6
	l15.9,15.9l61.5-61.5C440.9,174.2,433.4,171.1,374.7,229.6L374.7,229.6z"/>
<path class="st1" d="M408.9,265.9l-17.4-17.4l63.7-63.7C472.3,202,446.9,230,408.9,265.9z"/>
<path class="st0" d="M408.9,267.4L408.9,267.4c-0.5,0-0.8-0.2-1.1-0.5l-17.4-17.4c-0.3-0.3-0.4-0.7-0.4-1.1c0-0.4,0.2-0.8,0.4-1.1
	l63.7-63.7c0.6-0.6,1.5-0.6,2.1,0c3.9,3.7,6,8.8,5.9,14.1c-0.2,16.7-19.3,38-52.2,69.1C409.6,267.3,409.3,267.4,408.9,267.4z
	 M393.6,248.5c9.7,9.8,13.7,13.7,15.3,15.3c25.4-24.2,49.9-48.9,50.2-65.9c0.1-4-1.3-7.9-4-10.8L393.6,248.5z"/>
<path class="st1" d="M373,230.1l12.8,12.8c0.2,0.2,0.2,0.6,0,0.9c-0.1,0.1-0.2,0.1-0.3,0.2l-26.5,5.7c-1.3,0.3-2.7-0.6-3-1.9
	c-0.2-0.8,0.1-1.7,0.7-2.3l15.4-15.4C372.4,229.9,372.8,229.9,373,230.1z"/>
<path class="st0" d="M358.5,251.2c-2.2,0-4-1.8-4-4c0-1.1,0.4-2.1,1.2-2.8l15.4-15.4c0.8-0.8,2.2-0.8,3,0l12.8,12.8
	c0.8,0.8,0.8,2.2,0,3c-0.3,0.3-0.7,0.5-1.1,0.6l-26.5,5.7C359.1,251.2,358.8,251.2,358.5,251.2z M372.6,231.8l-14.8,14.8
	c-0.3,0.3-0.4,0.8-0.2,1.2c0.2,0.4,0.6,0.6,1.1,0.5l24.9-5.4L372.6,231.8z"/>
<path class="st1" d="M488,148.7c-9.7-9.3-25.2-9-34.5,0.7s-9,25.2,0.7,34.5c8,7.7,20.1,9,29.5,3.3l-17.1-17.1L488,148.7z"/>
<path class="st0" d="M471.1,192.2c-14.3,0-26-11.6-26-25.9c0-14.3,11.6-26,25.9-26c6.7,0,13.2,2.6,18,7.2c0.6,0.6,0.6,1.5,0,2.1
	c0,0,0,0,0,0l-20.3,20.4l16,16c0.6,0.6,0.6,1.6,0,2.2c-0.1,0.1-0.2,0.2-0.3,0.2C480.5,190.9,475.9,192.2,471.1,192.2z M471.1,143.4
	c-12.6,0-22.9,10.3-22.9,22.9c0,12.6,10.3,22.9,22.9,22.9c3.5,0,7-0.8,10.1-2.4l-15.7-15.7c-0.6-0.6-0.6-1.5,0-2.1c0,0,0,0,0,0
	l20.3-20.3C481.7,145.3,476.5,143.4,471.1,143.4L471.1,143.4z"/>
<path class="st1" d="M488.5,149l-0.4-0.3l-21.5,21.4l17.1,17.1c1.7-1,3.3-2.2,4.7-3.6C498,174,498,158.6,488.5,149L488.5,149z"/>
<path class="st0" d="M483.7,188.7c-0.4,0-0.8-0.2-1.1-0.4l-17.1-17.1c-0.6-0.6-0.6-1.5,0-2.1c0,0,0,0,0,0l21.4-21.4
	c0.6-0.6,1.5-0.6,2.1,0l0.4,0.3c10.1,10.1,10.2,26.5,0.1,36.6c-1.5,1.5-3.2,2.8-5.1,3.9C484.3,188.6,484,188.7,483.7,188.7z
	 M468.8,170.1l15.1,15.2c1.2-0.8,2.4-1.7,3.4-2.8c8.7-8.7,9-22.7,0.7-31.7L468.8,170.1z"/>
<path class="st1" d="M456.9,186.6L456.9,186.6c-3.6-3.6-9.5-3.6-13.1,0l-56.9,56.9l9.5,9.5l60.2-52.8c3.8-3.4,4.2-9.3,0.8-13.1
	c0,0,0,0,0,0C457.2,186.9,457.1,186.8,456.9,186.6z"/>
<path class="st0" d="M396.4,254.6c-0.4,0-0.8-0.2-1.1-0.4l-9.5-9.5c-0.6-0.6-0.6-1.5,0-2.1l0,0l56.9-56.9c4.2-4.2,11.1-4.2,15.3,0
	l0,0c4.2,4.2,4.2,11.1,0,15.3c-0.2,0.2-0.3,0.3-0.5,0.5l-60.2,52.8C397,254.4,396.7,254.5,396.4,254.6z M389,243.6l7.4,7.4
	l59.1-51.9c3.3-2.8,3.7-7.7,0.9-11s-7.7-3.7-11-0.9c-0.2,0.2-0.4,0.3-0.6,0.5L389,243.6z"/>
<path class="st1" d="M343.2,308.3c-0.5,0.3-0.8,0.9-0.7,1.5l2.6,10.9c0.5,1.6-0.3,3.3-1.9,3.8c-1.2,0.4-2.5,0-3.3-0.9l-16.5-16.5
	l54.2-54.2l18.6,0.3l12.7,12.7C405.7,268.5,387.5,286.1,343.2,308.3z"/>
<path class="st0" d="M342,326c-1.2,0-2.4-0.5-3.2-1.4l-16.5-16.5c-0.6-0.6-0.6-1.5,0-2.1l54.2-54.2c0.3-0.3,0.7-0.4,1.1-0.4
	l18.7,0.3c0.4,0,0.8,0.2,1,0.4l12.7,12.7c0.6,0.6,0.6,1.5,0,2.1c0,0-0.1,0.1-0.1,0.1l-1.1,0.9c-16,14-37.7,28-64.8,41.6l2.5,10.8
	c0.5,2-0.4,4.1-2.2,5.1C343.6,325.8,342.8,326,342,326z M325.4,307.1l15.5,15.4c0.4,0.7,1.3,1,2.1,0.6c0.7-0.4,1-1.3,0.6-2.1
	c0,0,0,0,0,0l-2.6-10.9c-0.3-1.3,0.3-2.6,1.5-3.2l0,0c26.8-13.4,48.3-27.3,64.2-41.1l-11.1-11.1l-17.4-0.3L325.4,307.1z"/>
<path class="st1" d="M310.3,320l13-13l19.3,19.3l-30.8-2.1c-1.4-0.2-2.3-1.4-2.2-2.7C309.7,321,309.9,320.4,310.3,320z"/>
<path class="st0" d="M342.6,327.9L342.6,327.9l-30.9-2.1c-2.2-0.2-3.8-2.2-3.6-4.4c0.1-0.9,0.5-1.8,1.1-2.4l13-13
	c0.6-0.6,1.5-0.6,2.1,0c0,0,0,0,0,0l0,0l19.3,19.3c0.6,0.6,0.6,1.5,0,2.1C343.4,327.7,343,327.9,342.6,327.9z M323.3,309.2
	l-11.9,11.9c-0.3,0.3-0.4,0.6-0.2,1c0.1,0.4,0.4,0.6,0.8,0.6l26.7,1.8L323.3,309.2z"/>
<path class="st0" d="M372,259.9c-0.8,0-1.5-0.7-1.5-1.5c0-0.4,0.2-0.8,0.4-1.1l14.7-14.7c0.6-0.6,1.5-0.6,2.1,0c0,0,0,0,0,0l0,0
	l9.5,9.5c0.6,0.6,0.6,1.5,0,2.1c-0.2,0.2-0.5,0.4-0.8,0.4l-24.2,5.2C372.2,259.9,372.1,259.9,372,259.9z M386.7,245.8l-9.9,10
	l16.4-3.5L386.7,245.8z"/>
<path class="st1" d="M396.1,253.2l-16.6,3.6c-1.2,0.3-2.4-0.5-2.7-1.7c-0.2-0.8,0.1-1.6,0.6-2.1l9.2-9.2L396.1,253.2z"/>
<path class="st0" d="M379.1,258.3c-2.1,0-3.8-1.7-3.8-3.8c0-1,0.4-2,1.1-2.7l9.2-9.2c0.6-0.6,1.5-0.6,2.1,0c0,0,0,0,0,0l0,0l9.5,9.5
	c0.6,0.6,0.6,1.5,0,2.1c-0.2,0.2-0.5,0.4-0.8,0.4l-16.6,3.6C379.6,258.3,379.4,258.3,379.1,258.3z M386.6,245.8l-8.1,8.1
	c-0.3,0.2-0.3,0.6-0.1,0.9c0.1,0.3,0.5,0.5,0.8,0.4l13.8-3L386.6,245.8z"/>
<path class="st0" d="M488.6,163.5c-0.3-0.9-1.3-1.4-2.2-1.1c-0.9,0.3-1.4,1.3-1.1,2.2c0,0.2,0.1,0.3,0.2,0.4
	c0.9,1.9,0.7,4.1-0.6,5.7c-0.6,0.7-0.5,1.8,0.2,2.5s1.8,0.5,2.5-0.2c0,0,0,0,0,0C489.7,170.3,490.1,166.6,488.6,163.5z"/>
</svg>
